<?xml version="1.0" encoding="utf-8"?>
<!-- Generator: Adobe Illustrator 26.0.1, SVG Export Plug-In . SVG Version: 6.00 Build 0)  -->
<svg version="1.1" id="Layer_1" xmlns="http://www.w3.org/2000/svg" xmlns:xlink="http://www.w3.org/1999/xlink" x="0px" y="0px"
	 viewBox="0 0 595.28 841.89" style="enable-background:new 0 0 595.28 841.89;" xml:space="preserve">
<g>
	<path d="M538.44,395.22l-26.33,0.12v-13.39h9.02v-24.48h-41.03v24.48h9.97v13.49l-30.66,0.14v-14.45h9.03v-24.48h-41.04v24.48h9.98
		v14.55l-20.61,0.09l-10.13-39.06l-35.32,0.08v-43.55h28.77v-37.29H386.2v-23.79l50.25-65.08V90.64H314.21v-0.16H191.9v96.46
		l50.26,65.08v23.79h-13.89v37.29h28.78v43.96l-25.93,0.06l-12.18,38.5l-14.89-0.04v-12.83h9.02v-24.48h-41.04v24.48h9.98v12.77
		l-50.95-0.13v-13.81h21.42v-23.87H64.53v23.87h22.02v13.7l-26.99-0.07c-19.64,0-35.56,15.93-35.56,35.57v262.74
		c0,19.65,15.92,35.57,35.56,35.57h174.01c23.28,17.16,51.92,27.43,83.04,27.43c31.13,0,59.79-10.27,83.05-27.43h138.76
		c19.64,0,35.56-15.92,35.56-35.57V430.79C574,411.15,558.08,395.22,538.44,395.22z M220.48,170.23v-59.18h189.69v59.18H220.48z
		 M133.43,670.99h-27.57V460.63h27.57V670.99z M320.69,712.73c-72.75,0-131.72-58.97-131.72-131.72
		c0-72.75,58.97-131.72,131.72-131.72s131.72,58.97,131.72,131.72C452.41,653.76,393.44,712.73,320.69,712.73z M445.53,459.01
		c-8.51,0-15.41-6.89-15.41-15.4c0-8.51,6.9-15.4,15.41-15.4s15.41,6.89,15.41,15.4C460.94,452.12,454.04,459.01,445.53,459.01z
		 M475.92,424.96h78.22v37.07h-78.22V424.96z M476.94,616.88h77.21v29.79h-77.21V616.88z M554.76,687.41h-77.21v-29.8h77.21V687.41z
		"/>
	<path d="M320.69,477.24c-57.22,0-103.77,46.55-103.77,103.76c0,57.22,46.55,103.77,103.77,103.77
		c57.21,0,103.76-46.55,103.76-103.77C424.45,523.79,377.9,477.24,320.69,477.24z M320.69,665.32c-46.49,0-84.31-37.82-84.31-84.31
		c0-46.49,37.82-84.31,84.31-84.31c46.49,0,84.31,37.82,84.31,84.31C404.99,627.5,367.18,665.32,320.69,665.32z"/>
	<path d="M320.69,504.8c-42.03,0-76.2,34.18-76.2,76.2c0,42.02,34.18,76.21,76.2,76.21c42.02,0,76.21-34.19,76.21-76.21
		C396.89,538.99,362.71,504.8,320.69,504.8z M320.69,647.48c-36.65,0-66.48-29.83-66.48-66.48c0-36.65,29.83-66.47,66.48-66.47
		c36.65,0,66.48,29.83,66.48,66.47C387.17,617.66,357.34,647.48,320.69,647.48z"/>
</g>
</svg>
