<?xml version="1.0" encoding="utf-8"?>
<!-- Generator: Adobe Illustrator 26.0.1, SVG Export Plug-In . SVG Version: 6.00 Build 0)  -->
<svg version="1.1" xmlns="http://www.w3.org/2000/svg" xmlns:xlink="http://www.w3.org/1999/xlink" x="0px" y="0px"
	 viewBox="0 0 750 500" style="enable-background:new 0 0 750 500;" xml:space="preserve">
<style type="text/css">
	.st0{display:none;}
	.st1{display:inline;fill:#DCF3FF;}
	.st2{clip-path:url(#SVGID_00000111153244368834947820000004078346093220862105_);fill:#C7E9F9;}
	.st3{clip-path:url(#SVGID_00000111153244368834947820000004078346093220862105_);}
	.st4{fill:#FFFFFF;}
	.st5{fill:#0095A9;}
	.st6{opacity:0.21;fill:#295A65;}
	.st7{fill:#299C90;}
	.st8{opacity:0.5;fill:#0095A9;}
	.st9{fill:#052A44;}
	.st10{fill:#F23A30;}
	.st11{opacity:0.25;}
	.st12{fill:#163A51;}
	.st13{fill:#FCBA33;}
	.st14{fill:#0A5487;}
	.st15{fill:#E4EEF4;}
	.st16{opacity:0.1;fill:#D9F1FF;}
	.st17{opacity:0.24;fill:#163A51;}
	.st18{opacity:0.24;fill:#791D18;}
	.st19{opacity:0.52;fill:#163A51;}
	.st20{opacity:0.52;fill:#E0E0E0;}
	.st21{fill:none;stroke:#E4EEF4;stroke-width:0.5476;stroke-miterlimit:10;}
	.st22{fill:none;stroke:#E4EEF4;stroke-width:0.5476;stroke-miterlimit:10;stroke-dasharray:1.6599,3.3198;}
	.st23{fill:none;stroke:#E4EEF4;stroke-width:0.5476;stroke-miterlimit:10;stroke-dasharray:1.6575,3.3151;}
	.st24{fill:none;stroke:#E4EEF4;stroke-width:0.5476;stroke-miterlimit:10;stroke-dasharray:1.6776,3.3553;}
	.st25{fill:none;stroke:#E4EEF4;stroke-width:0.5476;stroke-miterlimit:10;stroke-dasharray:1.653,3.306;}
	.st26{opacity:0.3;fill:#163A51;}
	.st27{opacity:0.26;fill:#163A51;}
	.st28{fill:none;stroke:#163A51;stroke-width:1.0263;stroke-miterlimit:10;}
	.st29{fill:#D9F1FF;}
	.st30{opacity:0.3;fill:#FCBA33;}
	.st31{opacity:0.26;fill:#FCBA33;}
	.st32{fill:none;stroke:#D9F1FF;stroke-width:1.0263;stroke-miterlimit:10;}
	
		.st33{clip-path:url(#SVGID_00000111153244368834947820000004078346093220862105_);fill:none;stroke:#E4EEF4;stroke-width:0.5476;stroke-miterlimit:10;}
	
		.st34{clip-path:url(#SVGID_00000111153244368834947820000004078346093220862105_);fill:none;stroke:#E4EEF4;stroke-width:0.9271;stroke-miterlimit:10;}
	.st35{font-family:'Montserrat-Regular';}
	.st36{font-size:9.357px;}
	.st37{fill:none;stroke:#FFFFFF;stroke-width:1.1723;stroke-miterlimit:10;}
	.st38{fill:#050D0F;}
	.st39{opacity:0.55;fill:#D9F1FF;}
	.st40{opacity:0.2;fill:#0A5487;}
	.st41{fill:none;stroke:#FFFFFF;stroke-width:0.2931;stroke-miterlimit:10;}
	.st42{fill:#FEFFFA;}
	.st43{fill:#FFA122;}
	.st44{fill:#FBCB5B;}
	.st45{fill:#FFEA92;}
	.st46{fill:#FDFAAC;}
	.st47{fill:#1F766C;}
	.st48{fill:#54B1A6;}
	.st49{fill:#7FC4BC;}
	.st50{fill:#A9D8D3;}
	.st51{fill:#B52C24;}
	.st52{fill:#F56159;}
	.st53{fill:#F78983;}
	.st54{fill:#FAB0AC;}
	.st55{fill:#B0B0B0;}
	.st56{opacity:0.4;fill:#0A5487;}
	.st57{opacity:0.4;fill:none;stroke:#0A5487;stroke-width:0.9271;stroke-miterlimit:10;}
	.st58{opacity:0.5;fill:none;stroke:#0A5487;stroke-width:0.538;stroke-miterlimit:10;}
	.st59{opacity:0.5;fill:none;stroke:#0A5487;stroke-width:0.563;stroke-miterlimit:10;}
	.st60{opacity:0.48;fill:#163A51;}
	.st61{opacity:0.56;fill:#163A51;}
	.st62{opacity:0.25;fill:#163A51;}
	.st63{opacity:0.48;fill:#FCBA33;}
	.st64{opacity:0.56;fill:#B52C24;}
	.st65{opacity:0.25;fill:#B52C24;}
	.st66{display:inline;}
</style>
<g id="BACKGROUND" class="st0">
	<rect class="st1" width="750" height="500"/>
</g>
<g id="OBJECTS">
	<g>
		<defs>
			<rect id="SVGID_1_" x="-115" y="-85.52" width="950" height="631.03"/>
		</defs>
		<clipPath id="SVGID_00000150090343754336413900000017111786333397227181_">
			<use xlink:href="#SVGID_1_"  style="overflow:visible;"/>
		</clipPath>
		<path style="clip-path:url(#SVGID_00000150090343754336413900000017111786333397227181_);fill:#C7E9F9;" d="M568.41,453.19h-330.9
			c-152.42,0-247.45-167.3-167.33-296.97c26.13-42.29,69.13-75.56,137.86-87.46c242.72-42.02,249.5,161.29,320.06,151.76
			c16.35-2.21,31.98-2.93,46.75-2.24c72.66,3.43,124.19,69.61,109.08,141.63C672.23,415.67,624.7,453.19,568.41,453.19z"/>
		<g style="clip-path:url(#SVGID_00000150090343754336413900000017111786333397227181_);">
			<path class="st4" d="M87.14,123.46c0,0-2.51,15.27,5.44,26.76c9.27,13.41,18.85,17,24.9,17.81c5.88,0.79,8.25,5.53,8.25,5.53
				l3.35-6.52c0,0-1.47-7.71-4.62-13.86c-3.15-6.15-14.76-13.26-23.79-17.51C91.63,131.4,87.14,123.46,87.14,123.46z"/>
			<path class="st5" d="M138.99,169.27"/>
			<path class="st6" d="M87.12,123.59c1.73,2.76,4.31,6.03,7.98,8.74c8.03,5.93,21.5,14.93,23.34,22.67c1.3,5.45,1,11.63-1.57,12.84
				c0.2,0.06,0.41,0.13,0.6,0.18c5.71,1.59,8.25,5.53,8.25,5.53l3.35-6.52c0,0-1.47-7.71-4.62-13.86
				c-3.15-6.15-14.76-13.26-23.79-17.51c-9.03-4.26-13.52-12.2-13.52-12.2S87.13,123.51,87.12,123.59z"/>
			<path class="st7" d="M241.63,275.51L241.63,275.51c-1.2,1.28-3.43,1.15-5.04-0.3L119.84,170.41l8.96-9.56L241,270.5
				C242.55,272.01,242.83,274.24,241.63,275.51z"/>
			<path class="st8" d="M126.53,163.27L235.94,270.2c1.54,1.51,1.82,3.72,0.63,5l0.02,0.01c1.61,1.44,3.84,1.58,5.04,0.3
				c1.2-1.28,0.92-3.5-0.63-5.01L128.8,160.84L126.53,163.27z"/>
			<path class="st9" d="M118.67,168.63c0,0,4.16-0.98,8.55-9.61l2.71,1.09c1.06,0.43,1.51,1.69,0.95,2.69
				c-1.49,2.62-4.52,7.28-8.37,9.56c-0.98,0.58-2.25,0.12-2.69-0.93L118.67,168.63z"/>
			<path class="st10" d="M93.2,151.64c1.19,1.68,2.38,3.21,3.57,4.62c-0.13-1.94-1.19-5.09-2.39-6.74c-2.04-2.82,2.7-2.02,6.22,0.34
				c3.52,2.36,0.73-2.77-0.39-5.49c-1.11-2.73,7.93,2.42,12.35,2.24c4.42-0.18-1.98-6.78-10.72-10.92
				c-9.89-4.54-14.87-13.14-14.87-13.14S84.41,139.2,93.2,151.64z"/>
		</g>
		<g style="clip-path:url(#SVGID_00000150090343754336413900000017111786333397227181_);">
			<g class="st11">
				
					<rect x="529.3" y="80.54" transform="matrix(0.2109 -0.9775 0.9775 0.2109 357.3702 738.8479)" class="st12" width="214.06" height="135.06"/>
				<path class="st12" d="M592.9,29.2l30.8,6.65c0,0,16.47,26.48,6.78,35.67c-25.18,23.89,40.45,36.43,30.86,63.85
					c-6.59,18.85-42.55,8.73-45.17,19.21c-3.55,14.2,24.95,38.69,5.07,50.32c-17.3,10.12-40.29,19.54-32.65,29.15
					c7.64,9.61,1.02,13.43,1.02,13.43l-41.87-9.04L592.9,29.2z"/>
				<path class="st12" d="M685.49,71.76l-6.86,36.55c-1.07,5.69,2.88,11.31,8.65,11.77c2.63,0.21,5.3-0.7,7.31-3.97
					c3.48-5.66-4.85-14.96,4.83-16.29c10.11-1.39,12.28-8.69,4.33-12.53c-7.11-3.44,15.43-9.81,10.81-19.04
					c-3.36-6.7-11.22-7.55-17.68-6.93C691.19,61.87,686.55,66.13,685.49,71.76z"/>
				<path class="st12" d="M653.09,173.1l-5.15,27.48c-0.8,4.28,2.17,8.5,6.5,8.85c1.98,0.16,3.99-0.53,5.5-2.98
					c2.62-4.25-3.64-11.24,3.64-12.24c7.6-1.04,9.23-6.53,3.25-9.42c-5.35-2.59,11.6-7.37,8.13-14.31
					c-2.52-5.04-8.43-5.68-13.29-5.21C657.37,165.66,653.88,168.86,653.09,173.1z"/>
			</g>
			<g>
				<g>
					
						<rect x="526.3" y="76.54" transform="matrix(0.2109 -0.9775 0.9775 0.2109 358.913 732.7592)" class="st13" width="214.06" height="135.06"/>
					<path class="st14" d="M589.9,25.2l30.8,6.65c0,0,16.47,26.48,6.78,35.67c-25.18,23.89,40.45,36.43,30.86,63.85
						c-6.59,18.85-42.55,8.73-45.17,19.21c-3.55,14.2,24.95,38.69,5.07,50.32c-17.3,10.12-40.29,19.54-32.65,29.15
						c7.64,9.61,1.02,13.43,1.02,13.43l-41.87-9.04L589.9,25.2z"/>
					<path class="st4" d="M682.49,67.76l-6.86,36.55c-1.07,5.69,2.88,11.31,8.65,11.77c2.63,0.21,5.3-0.7,7.31-3.97
						c3.48-5.66-4.85-14.96,4.83-16.29c10.11-1.39,12.28-8.69,4.33-12.53c-7.11-3.44,15.43-9.81,10.81-19.04
						c-3.36-6.7-11.22-7.55-17.68-6.93C688.19,57.87,683.55,62.13,682.49,67.76z"/>
					<path class="st4" d="M650.09,169.1l-5.15,27.48c-0.8,4.28,2.17,8.5,6.5,8.85c1.98,0.16,3.99-0.53,5.5-2.98
						c2.62-4.25-3.64-11.24,3.64-12.24c7.6-1.04,9.23-6.53,3.25-9.42c-5.35-2.59,11.6-7.37,8.13-14.31
						c-2.52-5.04-8.43-5.68-13.29-5.21C654.37,161.66,650.88,164.86,650.09,169.1z"/>
				</g>
			</g>
		</g>
		<g style="clip-path:url(#SVGID_00000150090343754336413900000017111786333397227181_);">
			<g class="st11">
				
					<rect x="480.22" y="31.31" transform="matrix(0.7298 -0.6836 0.6836 0.7298 53.4119 411.8302)" class="st12" width="135.06" height="214.06"/>
				<path class="st12" d="M425.29,106.39l23-21.54c0,0,31.14,1.53,33.18,14.72c5.3,34.3,52.98-12.52,70.07,10.97
					c11.75,16.15-17.04,39.96-9.92,48.07c9.65,11,46.01,1.5,44.26,24.48c-1.52,19.98-6.86,44.25,5.38,43.44
					c12.25-0.81,11.62,6.8,11.62,6.8l-31.26,29.28L425.29,106.39z"/>
				<path class="st12" d="M540.32,83.73c-5.85,5.48-15.03,5.18-20.51-0.67s-5.18-15.03,0.67-20.51c5.85-5.48,15.03-5.18,20.51,0.67
					C546.47,69.07,546.17,78.25,540.32,83.73z"/>
			</g>
			<g>
				<g>
					
						<rect x="477.22" y="27.31" transform="matrix(0.7298 -0.6836 0.6836 0.7298 55.3359 408.6986)" class="st4" width="135.06" height="214.06"/>
					<path class="st7" d="M422.29,102.39l23-21.54c0,0,31.14,1.53,33.18,14.72c5.3,34.3,52.98-12.52,70.07,10.97
						c11.75,16.15-17.04,39.96-9.92,48.07c9.65,11,46.01,1.5,44.26,24.48c-1.52,19.98-6.86,44.25,5.38,43.44
						c12.25-0.81,11.62,6.8,11.62,6.8l-31.26,29.28L422.29,102.39z"/>
					<path class="st13" d="M537.32,79.73c-5.85,5.48-15.03,5.18-20.51-0.67s-5.18-15.03,0.67-20.51c5.85-5.48,15.03-5.18,20.51,0.67
						C543.47,65.07,543.17,74.25,537.32,79.73z"/>
				</g>
			</g>
		</g>
		<g style="clip-path:url(#SVGID_00000150090343754336413900000017111786333397227181_);">
			<rect x="315.3" y="326.86" class="st15" width="81.39" height="30.52"/>
			<rect x="315.3" y="326.86" class="st15" width="81.39" height="15.26"/>
			<path class="st4" d="M508.77,335.01H198.93c-8.99,0-16.27-7.28-16.27-16.27V113.26c0-8.99,7.28-16.27,16.27-16.27h309.83
				c8.99,0,16.27,7.28,16.27,16.27v205.48C525.04,327.72,517.75,335.01,508.77,335.01z"/>
			<path class="st14" d="M504.5,96.98H203.2c-11.34,0-20.54,9.19-20.54,20.54v173.53h342.37V117.52
				C525.04,106.18,515.84,96.98,504.5,96.98z"/>
			<path class="st4" d="M428.05,369.67H283.08l0,0c0-7.49,6.07-13.56,13.56-13.56h117.84C421.98,356.11,428.05,362.18,428.05,369.67
				L428.05,369.67z"/>
			<path class="st16" d="M428.05,96.98H203.2c-11.34,0-20.54,9.19-20.54,20.54v137.89C182.66,255.41,439.4,96.98,428.05,96.98z"/>
		</g>
		<g style="clip-path:url(#SVGID_00000150090343754336413900000017111786333397227181_);">
			<g class="st11">
				<polygon class="st12" points="584.05,274.07 563.02,274.07 563.02,200.28 573.54,182.66 584.05,200.28 				"/>
				<polygon class="st12" points="584.05,274.07 563.02,274.07 563.02,200.28 568.47,204.79 573.54,200.2 578.66,204.82 
					584.05,200.28 				"/>
				<polygon class="st12" points="577.03,188.52 570.04,188.52 573.54,182.66 				"/>
				<polygon class="st17" points="573.54,182.66 578.66,204.82 578.66,274.07 584.05,274.07 584.05,200.28 				"/>
				<polygon class="st17" points="573.57,182.66 568.44,204.82 568.44,274.07 563.06,274.07 563.06,200.28 				"/>
				<path class="st12" d="M579.23,288.46h-11.65c-2.66,0-4.82-2.16-4.82-4.82v-9.57h21.3v9.57
					C584.05,286.31,581.89,288.46,579.23,288.46z"/>
				<rect x="562.75" y="273.04" class="st12" width="21.3" height="2.94"/>
			</g>
			<g>
				<g>
					<polygon class="st4" points="581.05,270.07 560.02,270.07 560.02,196.28 570.54,178.66 581.05,196.28 					"/>
					<polygon class="st10" points="581.05,270.07 560.02,270.07 560.02,196.28 565.47,200.79 570.54,196.2 575.66,200.82 
						581.05,196.28 					"/>
					<polygon class="st10" points="574.03,184.52 567.04,184.52 570.54,178.66 					"/>
					<polygon class="st18" points="570.54,178.66 575.66,200.82 575.66,270.07 581.05,270.07 581.05,196.28 					"/>
					<polygon class="st18" points="570.57,178.66 565.44,200.82 565.44,270.07 560.06,270.07 560.06,196.28 					"/>
					<path class="st13" d="M576.23,284.46h-11.65c-2.66,0-4.82-2.16-4.82-4.82v-9.57h21.3v9.57
						C581.05,282.31,578.89,284.46,576.23,284.46z"/>
					<rect x="559.75" y="269.04" class="st14" width="21.3" height="2.94"/>
				</g>
			</g>
		</g>
		<g style="clip-path:url(#SVGID_00000150090343754336413900000017111786333397227181_);">
			<g class="st11">
				<polygon class="st12" points="673.64,203.72 658.43,218.24 607.47,164.89 602.89,144.88 622.67,150.36 				"/>
				<polygon class="st12" points="673.64,203.72 658.43,218.24 607.47,164.89 614.51,164.39 615.01,157.56 621.91,157.36 
					622.67,150.36 				"/>
				<polygon class="st12" points="609.47,146.71 604.41,151.54 602.89,144.88 				"/>
				<polygon class="st19" points="602.89,144.88 621.91,157.36 669.74,207.44 673.64,203.72 622.67,150.36 				"/>
				<polygon class="st19" points="602.92,144.86 614.52,164.43 662.35,214.5 658.46,218.22 607.49,164.87 				"/>
				<path class="st12" d="M680.09,217.46l-8.43,8.05c-1.93,1.84-4.98,1.77-6.82-0.16l-6.61-6.92l15.4-14.71l6.61,6.92
					C682.09,212.57,682.02,215.62,680.09,217.46z"/>
				
					<rect x="655.59" y="209.92" transform="matrix(0.7231 -0.6907 0.6907 0.7231 38.4607 518.7266)" class="st12" width="21.3" height="2.94"/>
			</g>
			<g>
				<g>
					<polygon class="st4" points="670.64,199.72 655.43,214.24 604.47,160.89 599.89,140.88 619.67,146.36 					"/>
					<polygon class="st7" points="670.64,199.72 655.43,214.24 604.47,160.89 611.51,160.39 612.01,153.56 618.91,153.36 
						619.67,146.36 					"/>
					<polygon class="st7" points="606.47,142.71 601.41,147.54 599.89,140.88 					"/>
					<polygon class="st20" points="599.89,140.88 618.91,153.36 666.74,203.44 670.64,199.72 619.67,146.36 					"/>
					<polygon class="st20" points="599.92,140.86 611.52,160.43 659.35,210.5 655.46,214.22 604.49,160.87 					"/>
					<path class="st14" d="M677.09,213.46l-8.43,8.05c-1.93,1.84-4.98,1.77-6.82-0.16l-6.61-6.92l15.4-14.71l6.61,6.92
						C679.09,208.57,679.02,211.62,677.09,213.46z"/>
					
						<rect x="652.59" y="205.92" transform="matrix(0.7231 -0.6907 0.6907 0.7231 40.393 515.5469)" class="st10" width="21.3" height="2.94"/>
				</g>
			</g>
		</g>
		<g style="clip-path:url(#SVGID_00000150090343754336413900000017111786333397227181_);">
			<g>
				<polyline class="st21" points="494.93,285.76 494.93,286.59 494.1,286.59 				"/>
				<line class="st22" x1="490.78" y1="286.59" x2="427.71" y2="286.59"/>
				<polyline class="st21" points="426.05,286.59 425.22,286.59 425.22,285.76 				"/>
				<line class="st23" x1="425.22" y1="282.45" x2="425.22" y2="179.68"/>
				<polyline class="st21" points="425.22,178.02 425.22,177.19 426.05,177.19 				"/>
				<line class="st22" x1="429.37" y1="177.19" x2="492.44" y2="177.19"/>
				<polyline class="st21" points="494.1,177.19 494.93,177.19 494.93,178.02 				"/>
				<line class="st23" x1="494.93" y1="181.34" x2="494.93" y2="284.11"/>
			</g>
		</g>
		<g style="clip-path:url(#SVGID_00000150090343754336413900000017111786333397227181_);">
			<g>
				<polyline class="st21" points="467.25,275.21 467.25,276.04 466.42,276.04 				"/>
				<line class="st24" x1="463.07" y1="276.04" x2="263.43" y2="276.04"/>
				<polyline class="st21" points="261.75,276.04 260.92,276.04 260.92,275.21 				"/>
				<line class="st25" x1="260.92" y1="271.9" x2="260.92" y2="139.67"/>
				<polyline class="st21" points="260.92,138.01 260.92,137.18 261.75,137.18 				"/>
				<line class="st24" x1="265.1" y1="137.18" x2="464.75" y2="137.18"/>
				<polyline class="st21" points="466.42,137.18 467.25,137.18 467.25,138.01 				"/>
				<line class="st25" x1="467.25" y1="141.32" x2="467.25" y2="273.56"/>
			</g>
		</g>
		<g style="clip-path:url(#SVGID_00000150090343754336413900000017111786333397227181_);">
			<g class="st11">
				<ellipse class="st12" cx="363.38" cy="233.07" rx="30.99" ry="24.29"/>
				<path class="st12" d="M359.81,249.84c17.11,0,30.99-10.87,30.99-24.29c0-1.57-0.2-3.1-0.56-4.59c2.62,3.56,4.12,7.69,4.12,12.1
					c0,13.41-13.87,24.29-30.99,24.29c-15.11,0-27.69-8.48-30.43-19.7C338.3,244.94,348.32,249.84,359.81,249.84z"/>
				<path class="st12" d="M285.04,106.23c2.1-43.09,32.07-76.39,75.21-76.29c1.2,0,2.39,0.04,3.58,0.1c1.19-0.06,2.38-0.1,3.58-0.1
					c43.14-0.1,71.82,33.21,73.92,76.29c1.05,21.64-6.47,41.51-19.46,56.52c-5.77,6.66-10.55,14.12-14.57,21.96l-9.85,19.22h-33.05
					h-1.15h-34.34l-9.85-19.22c-4.02-7.84-8.8-15.29-14.57-21.96C291.51,147.74,283.99,127.87,285.04,106.23z"/>
				<path class="st12" d="M316.3,219.47h94.04c2.26,0,4.09-1.83,4.09-4.09v-7.36c0-2.26-1.83-4.09-4.09-4.09H316.3
					c-2.26,0-4.09,1.83-4.09,4.09v7.36C312.21,217.64,314.04,219.47,316.3,219.47z"/>
				<path class="st12" d="M314.99,215.58h87.87c3.96,0,7.17-3.48,7.17-7.77c0-1.29-0.3-2.51-0.81-3.58c3,0.93,5.19,3.92,5.19,7.46
					c0,4.29-3.21,7.77-7.17,7.77h-87.87c-2.77,0-5.17-1.7-6.36-4.19C313.64,215.47,314.31,215.58,314.99,215.58z"/>
				<path class="st12" d="M322.89,232.11h80.84c1.94,0,3.52-1.57,3.52-3.52v-6.33c0-1.94-1.57-3.52-3.52-3.52h-80.84
					c-1.94,0-3.52,1.57-3.52,3.52v6.33C319.38,230.53,320.95,232.11,322.89,232.11z"/>
				<path class="st12" d="M321.78,228.77h75.54c3.41,0,6.17-2.99,6.17-6.68c0-1.11-0.25-2.16-0.7-3.08c2.58,0.8,4.46,3.37,4.46,6.42
					c0,3.69-2.76,6.68-6.17,6.68h-75.54c-2.38,0-4.44-1.46-5.47-3.6C320.62,228.67,321.19,228.77,321.78,228.77z"/>
				<path class="st26" d="M419.89,52.02c12.75,13.69,20.4,32.73,21.44,54.2c1.05,21.64-6.47,41.51-19.46,56.52
					c-5.77,6.66-10.55,14.12-14.57,21.96l-9.85,19.22h-33.05h-1.15h-34.34l-9.85-19.22c-3.46-6.75-7.49-13.21-12.22-19.12
					C390.46,183.2,450.91,110.67,419.89,52.02z"/>
				<path class="st27" d="M370.19,41.16c0,0-37.3-9.81-64.46,26.34c-27.16,36.14,3.89,79.87,3.89,79.87S293.8,77.42,370.19,41.16z"
					/>
				<path class="st28" d="M399.48,100.31l-21.85,100.63c-1.21,4.62-5.39,7.85-10.17,7.85h-8.35c-5.09,0-9.45-3.64-10.35-8.65
					L325.7,93.65"/>
				<path class="st28" d="M405.36,128.63c0,0-12.92-26.39-20.06-13.43c-7.14,12.95-11.29-4.96-20.22,3.02
					c-8.93,7.99-13.47,12.09-19.3,0c-5.83-12.09-26.55-12.52-29.14,0"/>
			</g>
			<g>
				<g>
					<g>
						<ellipse class="st29" cx="360.59" cy="229.36" rx="30.99" ry="24.29"/>
						<path class="st29" d="M357.03,246.13c17.11,0,30.99-10.87,30.99-24.29c0-1.57-0.2-3.1-0.56-4.59
							c2.62,3.56,4.12,7.69,4.12,12.1c0,13.41-13.87,24.29-30.99,24.29c-15.11,0-27.69-8.48-30.43-19.7
							C335.52,241.23,345.54,246.13,357.03,246.13z"/>
					</g>
					<path class="st13" d="M282.26,102.52c2.1-43.09,32.07-76.39,75.21-76.29c1.2,0,2.39,0.04,3.58,0.1c1.19-0.06,2.38-0.1,3.58-0.1
						c43.14-0.1,71.82,33.21,73.92,76.29c1.05,21.64-6.47,41.51-19.46,56.52c-5.77,6.66-10.55,14.12-14.57,21.96l-9.85,19.22h-33.05
						h-1.15h-34.34L316.29,181c-4.02-7.84-8.8-15.29-14.57-21.96C288.73,144.03,281.21,124.16,282.26,102.52z"/>
					<g>
						<path class="st29" d="M313.51,215.76h94.04c2.26,0,4.09-1.83,4.09-4.09v-7.36c0-2.26-1.83-4.09-4.09-4.09h-94.04
							c-2.26,0-4.09,1.83-4.09,4.09v7.36C309.42,213.93,311.26,215.76,313.51,215.76z"/>
						<path class="st29" d="M312.21,211.87h87.87c3.96,0,7.17-3.48,7.17-7.77c0-1.29-0.3-2.51-0.81-3.58c3,0.93,5.19,3.92,5.19,7.46
							c0,4.29-3.21,7.77-7.17,7.77H316.6c-2.77,0-5.17-1.7-6.36-4.19C310.86,211.76,311.53,211.87,312.21,211.87z"/>
					</g>
					<g>
						<path class="st29" d="M320.11,228.4h80.84c1.94,0,3.52-1.57,3.52-3.52v-6.33c0-1.94-1.57-3.52-3.52-3.52h-80.84
							c-1.94,0-3.52,1.57-3.52,3.52v6.33C316.6,226.82,318.17,228.4,320.11,228.4z"/>
						<path class="st29" d="M319,225.06h75.54c3.41,0,6.17-2.99,6.17-6.68c0-1.11-0.25-2.16-0.7-3.08c2.58,0.8,4.46,3.37,4.46,6.42
							c0,3.69-2.76,6.68-6.17,6.68h-75.54c-2.38,0-4.44-1.46-5.47-3.6C317.83,224.96,318.4,225.06,319,225.06z"/>
					</g>
					<path class="st30" d="M417.11,48.31c12.75,13.69,20.4,32.73,21.44,54.2c1.05,21.64-6.47,41.51-19.46,56.52
						c-5.77,6.66-10.55,14.12-14.57,21.96l-9.85,19.22h-33.05h-1.15h-34.34L316.29,181c-3.46-6.75-7.49-13.21-12.22-19.12
						C387.68,179.49,448.12,106.96,417.11,48.31z"/>
					<path class="st31" d="M367.41,37.45c0,0-37.3-9.81-64.46,26.34c-27.16,36.14,3.89,79.87,3.89,79.87S291.01,73.71,367.41,37.45z
						"/>
					<g>
						<path class="st32" d="M396.7,96.6l-21.85,100.63c-1.21,4.62-5.39,7.85-10.17,7.85h-8.35c-5.09,0-9.45-3.64-10.35-8.65
							L322.92,89.95"/>
						<path class="st32" d="M402.57,124.93c0,0-12.92-26.39-20.06-13.43c-7.14,12.95-11.29-4.96-20.22,3.02
							c-8.93,7.99-13.47,12.09-19.3,0c-5.83-12.09-26.55-12.52-29.14,0"/>
					</g>
				</g>
			</g>
		</g>
		
			<line style="clip-path:url(#SVGID_00000150090343754336413900000017111786333397227181_);fill:none;stroke:#E4EEF4;stroke-width:0.5476;stroke-miterlimit:10;" x1="236.98" y1="138.81" x2="236.98" y2="276.04"/>
		
			<line style="clip-path:url(#SVGID_00000150090343754336413900000017111786333397227181_);fill:none;stroke:#E4EEF4;stroke-width:0.5476;stroke-miterlimit:10;" x1="232.69" y1="143.32" x2="241.08" y2="143.32"/>
		
			<line style="clip-path:url(#SVGID_00000150090343754336413900000017111786333397227181_);fill:none;stroke:#E4EEF4;stroke-width:0.5476;stroke-miterlimit:10;" x1="232.69" y1="154.05" x2="241.08" y2="154.05"/>
		
			<line style="clip-path:url(#SVGID_00000150090343754336413900000017111786333397227181_);fill:none;stroke:#E4EEF4;stroke-width:0.5476;stroke-miterlimit:10;" x1="232.69" y1="164.77" x2="241.08" y2="164.77"/>
		
			<line style="clip-path:url(#SVGID_00000150090343754336413900000017111786333397227181_);fill:none;stroke:#E4EEF4;stroke-width:0.5476;stroke-miterlimit:10;" x1="232.69" y1="175.5" x2="241.08" y2="175.5"/>
		
			<line style="clip-path:url(#SVGID_00000150090343754336413900000017111786333397227181_);fill:none;stroke:#E4EEF4;stroke-width:0.9271;stroke-miterlimit:10;" x1="230.35" y1="186.22" x2="243.42" y2="186.22"/>
		
			<line style="clip-path:url(#SVGID_00000150090343754336413900000017111786333397227181_);fill:none;stroke:#E4EEF4;stroke-width:0.5476;stroke-miterlimit:10;" x1="232.69" y1="196.95" x2="241.08" y2="196.95"/>
		
			<line style="clip-path:url(#SVGID_00000150090343754336413900000017111786333397227181_);fill:none;stroke:#E4EEF4;stroke-width:0.5476;stroke-miterlimit:10;" x1="232.69" y1="207.68" x2="241.08" y2="207.68"/>
		
			<line style="clip-path:url(#SVGID_00000150090343754336413900000017111786333397227181_);fill:none;stroke:#E4EEF4;stroke-width:0.5476;stroke-miterlimit:10;" x1="232.69" y1="218.4" x2="241.08" y2="218.4"/>
		
			<line style="clip-path:url(#SVGID_00000150090343754336413900000017111786333397227181_);fill:none;stroke:#E4EEF4;stroke-width:0.5476;stroke-miterlimit:10;" x1="232.69" y1="229.13" x2="241.08" y2="229.13"/>
		
			<line style="clip-path:url(#SVGID_00000150090343754336413900000017111786333397227181_);fill:none;stroke:#E4EEF4;stroke-width:0.9271;stroke-miterlimit:10;" x1="229.18" y1="239.85" x2="244.59" y2="239.85"/>
		
			<line style="clip-path:url(#SVGID_00000150090343754336413900000017111786333397227181_);fill:none;stroke:#E4EEF4;stroke-width:0.5476;stroke-miterlimit:10;" x1="232.69" y1="250.58" x2="241.08" y2="250.58"/>
		
			<line style="clip-path:url(#SVGID_00000150090343754336413900000017111786333397227181_);fill:none;stroke:#E4EEF4;stroke-width:0.5476;stroke-miterlimit:10;" x1="232.69" y1="261.3" x2="241.08" y2="261.3"/>
		
			<line style="clip-path:url(#SVGID_00000150090343754336413900000017111786333397227181_);fill:none;stroke:#E4EEF4;stroke-width:0.5476;stroke-miterlimit:10;" x1="232.69" y1="272.03" x2="241.08" y2="272.03"/>
		<g style="clip-path:url(#SVGID_00000150090343754336413900000017111786333397227181_);">
			<text transform="matrix(1 0 0 1 220.4058 188.7964)" class="st4 st35 st36">5</text>
		</g>
		<g style="clip-path:url(#SVGID_00000150090343754336413900000017111786333397227181_);">
			<text transform="matrix(1 0 0 1 216.4429 242.2427)" class="st4 st35 st36">10</text>
		</g>
		<g style="clip-path:url(#SVGID_00000150090343754336413900000017111786333397227181_);">
			<path class="st37" d="M162.41,133.9h36.25v-46.6h37.36c12.87,0,23.3,10.43,23.3,23.3v68.06"/>
			<g>
				<path class="st38" d="M155.58,94.82l-22.3-11.32l-11.14,8.39l3.84,25.32l31.61,13.61l-14.03-18.61
					c-1.26-1.68-3.06-2.9-5.11-3.35c-1.49-0.33-2.84-1.31-3.59-2.89c-0.83-1.77-0.55-3.94,0.7-5.44c2.24-2.67,6.19-2.44,8.15,0.17
					c0.85,1.12,1.16,2.48,0.99,3.77c-0.29,2.17,0.49,4.35,1.81,6.1l13.69,18.16L155.58,94.82z"/>
				<path class="st14" d="M131.41,83.66l-8.53,6.43c-1.24,0.93-2.97,0.86-4.12-0.18l-6.75-6.11c-1.51-1.36-1.4-3.76,0.22-4.98
					l11.28-8.5c1.62-1.22,3.95-0.66,4.84,1.16l4.01,8.18C133.05,81.04,132.65,82.73,131.41,83.66z"/>
				<path class="st39" d="M138.45,108.86c-1.49-0.33-2.84-1.31-3.59-2.89c-0.83-1.77-0.55-3.94,0.7-5.44
					c0.25-0.29,0.52-0.54,0.8-0.76l-8.91-11.88l-5.32,4.01l3.84,25.32l31.61,13.61l-14.03-18.61
					C142.3,110.53,140.5,109.31,138.45,108.86z"/>
				<path class="st40" d="M131.41,83.66l-8.53,6.43c-1.24,0.93-2.97,0.86-4.12-0.18l-6.75-6.11c-1.51-1.36-1.4-3.76,0.22-4.98
					l11.28-8.5c1.62-1.22,3.95-0.66,4.84,1.16l4.01,8.18C133.05,81.04,132.65,82.73,131.41,83.66z"/>
				<path class="st7" d="M134.64,82.48l-14.01,10.56c-0.64,0.49-1.56,0.36-2.05-0.29l0,0c-0.49-0.64-0.36-1.56,0.29-2.05
					l14.01-10.56c0.64-0.49,1.56-0.36,2.05,0.29l0,0C135.41,81.08,135.28,82,134.64,82.48z"/>
			</g>
			<path class="st4" d="M201.62,133.9c0,1.63-1.32,2.96-2.96,2.96c-1.63,0-2.96-1.32-2.96-2.96c0-1.63,1.32-2.96,2.96-2.96
				C200.29,130.94,201.62,132.26,201.62,133.9z"/>
			<path class="st4" d="M165.37,133.9c0,1.63-1.32,2.96-2.96,2.96c-1.63,0-2.96-1.32-2.96-2.96c0-1.63,1.32-2.96,2.96-2.96
				C164.05,130.94,165.37,132.26,165.37,133.9z"/>
			<path class="st4" d="M201.62,87.29c0,1.63-1.32,2.96-2.96,2.96c-1.63,0-2.96-1.32-2.96-2.96c0-1.63,1.32-2.96,2.96-2.96
				C200.29,84.33,201.62,85.66,201.62,87.29z"/>
			<path class="st4" d="M240.55,87.29c0,1.63-1.32,2.96-2.96,2.96c-1.63,0-2.96-1.32-2.96-2.96c0-1.63,1.32-2.96,2.96-2.96
				C239.22,84.33,240.55,85.66,240.55,87.29z"/>
			<path class="st4" d="M262.28,108.36c0,1.63-1.32,2.96-2.96,2.96c-1.63,0-2.96-1.32-2.96-2.96c0-1.63,1.32-2.96,2.96-2.96
				C260.95,105.41,262.28,106.73,262.28,108.36z"/>
			<path class="st4" d="M262.28,178.65c0,1.63-1.32,2.96-2.96,2.96c-1.63,0-2.96-1.32-2.96-2.96c0-1.63,1.32-2.96,2.96-2.96
				C260.95,175.69,262.28,177.02,262.28,178.65z"/>
			<g>
				<path class="st4" d="M260.87,92.12c0,0.86-0.7,1.55-1.55,1.55s-1.55-0.7-1.55-1.55s0.7-1.55,1.55-1.55
					S260.87,91.27,260.87,92.12z"/>
				<line class="st41" x1="259.32" y1="108.36" x2="259.32" y2="92.12"/>
			</g>
			<g>
				<path class="st4" d="M253.68,87.29c0,0.86-0.7,1.55-1.55,1.55c-0.86,0-1.55-0.7-1.55-1.55c0-0.86,0.7-1.55,1.55-1.55
					C252.99,85.74,253.68,86.43,253.68,87.29z"/>
				<line class="st41" x1="237.59" y1="87.29" x2="252.28" y2="87.29"/>
			</g>
		</g>
		<g style="clip-path:url(#SVGID_00000150090343754336413900000017111786333397227181_);">
			<g class="st11">
				<path class="st12" d="M25.44,336.17l127.72,55.06c3.44,1.48,7.43-0.1,8.91-3.54l8.87-20.57c1.48-3.44-0.1-7.43-3.54-8.91
					L39.68,303.14c-3.44-1.48-7.43,0.1-8.91,3.54l-8.87,20.57C20.41,330.69,22,334.68,25.44,336.17z M158.4,368.21
					c2.65,1.14,3.87,4.22,2.73,6.87c-1.14,2.65-4.22,3.87-6.87,2.73c-2.65-1.14-3.87-4.22-2.73-6.87
					C152.67,368.29,155.75,367.06,158.4,368.21z"/>
				
					<rect x="117.05" y="352.55" transform="matrix(0.3959 -0.9183 0.9183 0.3959 -252.5276 343.8027)" class="st12" width="35.97" height="22.55"/>
				
					<rect x="93.8" y="342.53" transform="matrix(0.3959 -0.9183 0.9183 0.3959 -257.3682 316.402)" class="st12" width="35.97" height="22.55"/>
				
					<rect x="70.56" y="332.51" transform="matrix(0.3959 -0.9183 0.9183 0.3959 -262.2095 289.0068)" class="st12" width="35.97" height="22.55"/>
				
					<rect x="47.32" y="322.49" transform="matrix(0.3959 -0.9183 0.9183 0.3959 -267.0501 261.607)" class="st12" width="35.97" height="22.55"/>
				
					<rect x="24.07" y="312.47" transform="matrix(0.3959 -0.9183 0.9183 0.3959 -271.8916 234.2115)" class="st12" width="35.97" height="22.55"/>
				<path class="st12" d="M54.18,284.05l92.03,104.29c2.48,2.81,6.77,3.08,9.57,0.6l16.8-14.82c2.81-2.48,3.08-6.77,0.6-9.57
					L81.14,260.25c-2.48-2.81-6.77-3.08-9.57-0.6l-16.8,14.82C51.97,276.95,51.7,281.24,54.18,284.05z M160.76,369.75
					c1.91,2.16,1.7,5.47-0.46,7.38c-2.16,1.91-5.47,1.7-7.38-0.46c-1.91-2.16-1.7-5.47,0.46-7.38
					C155.55,367.38,158.85,367.59,160.76,369.75z"/>
				
					<rect x="123.51" y="344.55" transform="matrix(0.7498 -0.6617 0.6617 0.7498 -200.0316 182.6492)" class="st12" width="35.97" height="22.55"/>
				
					<rect x="106.77" y="325.57" transform="matrix(0.7498 -0.6617 0.6617 0.7498 -191.6646 166.8197)" class="st12" width="35.97" height="22.55"/>
				
					<rect x="90.02" y="306.59" transform="matrix(0.7498 -0.6617 0.6617 0.7498 -183.2988 150.9926)" class="st12" width="35.97" height="22.55"/>
				
					<rect x="73.27" y="287.61" transform="matrix(0.7498 -0.6617 0.6617 0.7498 -174.9306 135.1608)" class="st12" width="35.97" height="22.55"/>
				
					<rect x="56.52" y="268.63" transform="matrix(0.7498 -0.6617 0.6617 0.7498 -166.5635 119.3312)" class="st12" width="35.97" height="22.55"/>
				<path class="st12" d="M103.51,248.1l36.23,134.28c0.98,3.62,4.7,5.76,8.32,4.78l21.63-5.84c3.62-0.98,5.76-4.7,4.78-8.32
					l-36.23-134.28c-0.98-3.62-4.7-5.76-8.32-4.78l-21.63,5.84C104.68,240.76,102.54,244.48,103.51,248.1z M161.03,372.18
					c0.75,2.79-0.9,5.66-3.69,6.41c-2.79,0.75-5.66-0.9-6.41-3.69c-0.75-2.79,0.9-5.66,3.69-6.41
					C157.41,367.74,160.28,369.39,161.03,372.18z"/>
				
					<rect x="131.96" y="339.87" transform="matrix(0.9655 -0.2605 0.2605 0.9655 -86.2939 51.1812)" class="st12" width="35.97" height="22.55"/>
				
					<rect x="125.37" y="315.44" transform="matrix(0.9655 -0.2605 0.2605 0.9655 -80.155 48.6193)" class="st12" width="35.97" height="22.55"/>
				
					<rect x="118.77" y="291" transform="matrix(0.9655 -0.2605 0.2605 0.9655 -74.0184 46.0594)" class="st12" width="35.97" height="22.55"/>
				
					<rect x="112.18" y="266.56" transform="matrix(0.9655 -0.2605 0.2605 0.9655 -67.8807 43.4986)" class="st12" width="35.97" height="22.55"/>
				
					<rect x="105.59" y="242.13" transform="matrix(0.9655 -0.2605 0.2605 0.9655 -61.7415 40.9364)" class="st12" width="35.97" height="22.55"/>
			</g>
			<g>
				<g>
					<g>
						<path class="st42" d="M22.44,332.17l127.72,55.06c3.44,1.48,7.43-0.1,8.91-3.54l8.87-20.57c1.48-3.44-0.1-7.43-3.54-8.91
							L36.68,299.14c-3.44-1.48-7.43,0.1-8.91,3.54l-8.87,20.57C17.41,326.69,19,330.68,22.44,332.17z M155.4,364.21
							c2.65,1.14,3.87,4.22,2.73,6.87c-1.14,2.65-4.22,3.87-6.87,2.73c-2.65-1.14-3.87-4.22-2.73-6.87
							C149.67,364.29,152.75,363.06,155.4,364.21z"/>
						
							<rect x="114.05" y="348.55" transform="matrix(0.3959 -0.9183 0.9183 0.3959 -250.6668 338.6313)" class="st43" width="35.97" height="22.55"/>
						
							<rect x="90.8" y="338.53" transform="matrix(0.3959 -0.9183 0.9183 0.3959 -255.5074 311.2305)" class="st13" width="35.97" height="22.55"/>
						
							<rect x="67.56" y="328.51" transform="matrix(0.3959 -0.9183 0.9183 0.3959 -260.3487 283.8353)" class="st44" width="35.97" height="22.55"/>
						
							<rect x="44.32" y="318.49" transform="matrix(0.3959 -0.9183 0.9183 0.3959 -265.1893 256.4355)" class="st45" width="35.97" height="22.55"/>
						
							<rect x="21.07" y="308.47" transform="matrix(0.3959 -0.9183 0.9183 0.3959 -270.0308 229.04)" class="st46" width="35.97" height="22.55"/>
					</g>
					<g>
						<path class="st42" d="M51.18,280.05l92.03,104.29c2.48,2.81,6.77,3.08,9.57,0.6l16.8-14.82c2.81-2.48,3.08-6.77,0.6-9.57
							L78.14,256.25c-2.48-2.81-6.77-3.08-9.57-0.6l-16.8,14.82C48.97,272.95,48.7,277.24,51.18,280.05z M157.76,365.75
							c1.91,2.16,1.7,5.47-0.46,7.38c-2.16,1.91-5.47,1.7-7.38-0.46c-1.91-2.16-1.7-5.47,0.46-7.38
							C152.55,363.38,155.85,363.59,157.76,365.75z"/>
						
							<rect x="120.51" y="340.55" transform="matrix(0.7498 -0.6617 0.6617 0.7498 -198.1356 179.6635)" class="st47" width="35.97" height="22.55"/>
						
							<rect x="103.77" y="321.57" transform="matrix(0.7498 -0.6617 0.6617 0.7498 -189.7685 163.8339)" class="st7" width="35.97" height="22.55"/>
						
							<rect x="87.02" y="302.59" transform="matrix(0.7498 -0.6617 0.6617 0.7498 -181.4028 148.0068)" class="st48" width="35.97" height="22.55"/>
						
							<rect x="70.27" y="283.61" transform="matrix(0.7498 -0.6617 0.6617 0.7498 -173.0345 132.175)" class="st49" width="35.97" height="22.55"/>
						
							<rect x="53.52" y="264.63" transform="matrix(0.7498 -0.6617 0.6617 0.7498 -164.6675 116.3454)" class="st50" width="35.97" height="22.55"/>
					</g>
					<g>
						<path class="st42" d="M100.51,244.1l36.23,134.28c0.98,3.62,4.7,5.76,8.32,4.78l21.63-5.84c3.62-0.98,5.76-4.7,4.78-8.32
							l-36.23-134.28c-0.98-3.62-4.7-5.76-8.32-4.78l-21.63,5.84C101.68,236.76,99.54,240.48,100.51,244.1z M158.03,368.18
							c0.75,2.79-0.9,5.66-3.69,6.41c-2.79,0.75-5.66-0.9-6.41-3.69c-0.75-2.79,0.9-5.66,3.69-6.41
							C154.41,363.74,157.28,365.39,158.03,368.18z"/>
						
							<rect x="128.96" y="335.87" transform="matrix(0.9655 -0.2605 0.2605 0.9655 -85.3555 50.2616)" class="st51" width="35.97" height="22.55"/>
						
							<rect x="122.37" y="311.44" transform="matrix(0.9655 -0.2605 0.2605 0.9655 -79.2166 47.6998)" class="st10" width="35.97" height="22.55"/>
						
							<rect x="115.77" y="287" transform="matrix(0.9655 -0.2605 0.2605 0.9655 -73.08 45.1399)" class="st52" width="35.97" height="22.55"/>
						
							<rect x="109.18" y="262.56" transform="matrix(0.9655 -0.2605 0.2605 0.9655 -66.9423 42.579)" class="st53" width="35.97" height="22.55"/>
						
							<rect x="102.59" y="238.13" transform="matrix(0.9655 -0.2605 0.2605 0.9655 -60.8031 40.0168)" class="st54" width="35.97" height="22.55"/>
					</g>
				</g>
			</g>
		</g>
		<g style="clip-path:url(#SVGID_00000150090343754336413900000017111786333397227181_);">
			<g>
				<path class="st55" d="M549.51,478.38H158.19c-5.4,0-12.07-9.59-8.96-14.01l54.04-73.26c1.25-1.77,3.28-2.83,5.45-2.83h290.27
					c2.17,0,4.2,1.05,5.45,2.83l54.04,72.09C561.58,467.61,554.91,478.38,549.51,478.38z"/>
				<path class="st4" d="M553.02,472.53H154.68c-5.4,0-8.56-6.08-5.45-10.5l50.37-71.57c3.54-5.03,9.31-8.03,15.47-8.03h277.56
					c6.16,0,11.93,2.99,15.47,8.03l50.37,71.57C561.58,466.44,558.42,472.53,553.02,472.53z"/>
				<polygon class="st56" points="259.08,395.31 486.07,395.31 527.02,454.98 223.2,454.98 				"/>
				<polygon class="st57" points="233.54,449.13 262.39,401.16 482.98,401.16 515.91,449.13 				"/>
				<path class="st58" d="M237.86,410.05h-32.55c-2.65,0-4.11-3.07-2.43-5.12l6.63-8.13c0.89-1.09,2.23-1.73,3.64-1.73h31.09
					c2.48,0,3.98,2.73,2.65,4.82l-5.06,7.98C240.96,409.23,239.46,410.05,237.86,410.05z"/>
				<path class="st58" d="M222.87,431.29h-32.55c-2.65,0-4.11-3.07-2.43-5.12l6.63-8.13c0.89-1.09,2.23-1.73,3.64-1.73h31.09
					c2.48,0,3.98,2.73,2.65,4.82l-5.06,7.98C225.97,430.47,224.48,431.29,222.87,431.29z"/>
				<path class="st59" d="M210.12,453.46h-35.65c-2.9,0-4.5-3.07-2.66-5.12l7.27-8.13c0.98-1.09,2.44-1.73,3.98-1.73h34.05
					c2.71,0,4.36,2.73,2.9,4.82l-5.55,7.98C213.52,452.64,211.88,453.46,210.12,453.46z"/>
			</g>
		</g>
		<g style="clip-path:url(#SVGID_00000150090343754336413900000017111786333397227181_);">
			<g class="st11">
				<path class="st12" d="M701.22,364.71c0.12-0.37,0.24-0.75,0.35-1.13c3.35-11.28,1.67-25-6.47-33.91
					c-10.05-10.99-26.84-7.54-39.37-3.6c-3.02,0.95-6.16,1.88-9.31,1.5c-14.04-1.67-14.49-21.49-26.22-27.6
					c-6.86-3.58-15.2-2.77-22.65-0.66c-40.74,11.51-69.62,62.05-41.35,99.11c27.65,36.25,76.38,29.29,110.47,6.61
					c12.55-8.35,25.25-19.86,31.96-33.86C699.64,369.07,700.51,366.92,701.22,364.71z M675.73,357.26
					c-7.69,1.2-14.65-2.45-15.54-8.16c-0.89-5.7,4.62-11.3,12.32-12.5c7.69-1.2,14.65,2.45,15.54,8.16
					C688.93,350.46,683.42,356.06,675.73,357.26z"/>
				<path class="st60" d="M695.14,329.67c-1.4-1.53-2.93-2.77-4.56-3.77c19.67,54.53-87.55,107.23-144.47,50.77
					c1.59,7.49,4.87,14.85,10.13,21.75c27.65,36.25,76.38,29.29,110.47,6.61c12.55-8.35,25.25-19.86,31.96-33.86
					c1.01-2.1,1.88-4.26,2.59-6.47c0.12-0.37,0.24-0.75,0.35-1.13C704.97,352.3,703.29,338.57,695.14,329.67z"/>
				<path class="st12" d="M609.72,329.24c-4.35,5.05-11.98,5.61-17.03,1.26c-5.05-4.35-5.61-11.98-1.26-17.03
					c4.35-5.05,11.98-5.61,17.03-1.26C613.51,316.57,614.08,324.2,609.72,329.24z"/>
				
					<ellipse transform="matrix(0.9972 -0.0743 0.0743 0.9972 -23.9547 43.3739)" class="st12" cx="571.16" cy="343.74" rx="12.07" ry="12.07"/>
				<path class="st12" d="M579.03,388.31c-4.35,5.05-11.98,5.61-17.03,1.26c-5.05-4.35-5.61-11.98-1.26-17.03s11.98-5.61,17.03-1.26
					C582.82,375.64,583.38,383.26,579.03,388.31z"/>
				<path class="st12" d="M607.8,408.39c-4.35,5.05-11.98,5.61-17.03,1.26c-5.05-4.35-5.61-11.98-1.26-17.03
					c4.35-5.05,11.98-5.61,17.03-1.26C611.59,395.72,612.15,403.34,607.8,408.39z"/>
				
					<ellipse transform="matrix(0.9972 -0.0743 0.0743 0.9972 -27.7437 48.3644)" class="st12" cx="636.34" cy="397.17" rx="12.07" ry="12.07"/>
				
					<ellipse transform="matrix(0.9972 -0.0743 0.0743 0.9972 -26.1173 50.5105)" class="st12" cx="665.99" cy="376.37" rx="12.07" ry="12.07"/>
				<path class="st12" d="M591.44,315.14c4.35-5.05,11.98-5.61,17.03-1.26c2.52,2.17,3.92,5.15,4.15,8.23
					c0.22-3.64-1.18-7.33-4.15-9.89c-5.05-4.35-12.67-3.79-17.03,1.26c-2.18,2.53-3.13,5.71-2.89,8.8
					C588.7,319.73,589.65,317.22,591.44,315.14z"/>
				<path class="st61" d="M562.02,337.53c4.35-5.05,11.98-5.61,17.03-1.26c2.52,2.17,3.92,5.15,4.15,8.23
					c0.22-3.64-1.18-7.33-4.15-9.89c-5.05-4.35-12.67-3.79-17.03,1.26c-2.18,2.53-3.13,5.71-2.89,8.8
					C559.29,342.12,560.23,339.6,562.02,337.53z"/>
				<path class="st61" d="M560.75,374.22c4.35-5.05,11.98-5.61,17.03-1.26c2.52,2.17,3.92,5.15,4.15,8.23
					c0.22-3.64-1.18-7.33-4.15-9.89c-5.05-4.35-12.67-3.79-17.03,1.26c-2.18,2.53-3.13,5.71-2.89,8.8
					C558.02,378.81,558.96,376.29,560.75,374.22z"/>
				<path class="st61" d="M589.52,394.29c4.35-5.05,11.98-5.61,17.03-1.26c2.52,2.17,3.92,5.15,4.15,8.23
					c0.22-3.64-1.18-7.33-4.15-9.89c-5.05-4.35-12.67-3.79-17.03,1.26c-2.18,2.53-3.13,5.71-2.89,8.8
					C586.78,398.88,587.73,396.37,589.52,394.29z"/>
				<path class="st61" d="M627.2,390.95c4.35-5.05,11.98-5.61,17.03-1.26c2.52,2.17,3.92,5.15,4.15,8.23
					c0.22-3.64-1.18-7.33-4.15-9.89c-5.05-4.35-12.67-3.79-17.03,1.26c-2.18,2.53-3.13,5.71-2.89,8.8
					C624.46,395.54,625.41,393.03,627.2,390.95z"/>
				<path class="st62" d="M656.84,370.15c4.35-5.05,11.98-5.61,17.03-1.26c2.52,2.17,3.92,5.15,4.15,8.23
					c0.22-3.64-1.18-7.33-4.15-9.89c-5.05-4.35-12.67-3.79-17.03,1.26c-2.18,2.53-3.13,5.71-2.89,8.8
					C654.11,374.74,655.05,372.23,656.84,370.15z"/>
			</g>
			<g>
				<g>
					<g>
						<path class="st13" d="M698.22,360.71c0.12-0.37,0.24-0.75,0.35-1.13c3.35-11.28,1.67-25-6.47-33.91
							c-10.05-10.99-26.84-7.54-39.37-3.6c-3.02,0.95-6.16,1.88-9.31,1.5c-14.04-1.67-14.49-21.49-26.22-27.6
							c-6.86-3.58-15.2-2.77-22.65-0.66c-40.74,11.51-69.62,62.05-41.35,99.11c27.65,36.25,76.38,29.29,110.47,6.61
							c12.55-8.35,25.25-19.86,31.96-33.86C696.64,365.07,697.51,362.92,698.22,360.71z M672.73,353.26
							c-7.69,1.2-14.65-2.45-15.54-8.16c-0.89-5.7,4.62-11.3,12.32-12.5c7.69-1.2,14.65,2.45,15.54,8.16
							C685.93,346.46,680.42,352.06,672.73,353.26z"/>
					</g>
					<path class="st63" d="M692.14,325.67c-1.4-1.53-2.93-2.77-4.56-3.77c19.67,54.53-87.55,107.23-144.47,50.77
						c1.59,7.49,4.87,14.85,10.13,21.75c27.65,36.25,76.38,29.29,110.47,6.61c12.55-8.35,25.25-19.86,31.96-33.86
						c1.01-2.1,1.88-4.26,2.59-6.47c0.12-0.37,0.24-0.75,0.35-1.13C701.97,348.3,700.29,334.57,692.14,325.67z"/>
					<path class="st51" d="M606.72,325.24c-4.35,5.05-11.98,5.61-17.03,1.26c-5.05-4.35-5.61-11.98-1.26-17.03
						c4.35-5.05,11.98-5.61,17.03-1.26C610.51,312.57,611.08,320.2,606.72,325.24z"/>
					
						<ellipse transform="matrix(0.9972 -0.0743 0.0743 0.9972 -23.6658 43.1401)" class="st10" cx="568.16" cy="339.74" rx="12.07" ry="12.07"/>
					<path class="st47" d="M576.03,384.31c-4.35,5.05-11.98,5.61-17.03,1.26c-5.05-4.35-5.61-11.98-1.26-17.03
						s11.98-5.61,17.03-1.26C579.82,371.64,580.38,379.26,576.03,384.31z"/>
					<path class="st7" d="M604.8,404.39c-4.35,5.05-11.98,5.61-17.03,1.26c-5.05-4.35-5.61-11.98-1.26-17.03
						c4.35-5.05,11.98-5.61,17.03-1.26C608.59,391.72,609.15,399.34,604.8,404.39z"/>
					
						<ellipse transform="matrix(0.9972 -0.0743 0.0743 0.9972 -27.4548 48.1305)" class="st14" cx="633.34" cy="393.17" rx="12.07" ry="12.07"/>
					
						<ellipse transform="matrix(0.9972 -0.0743 0.0743 0.9972 -25.8284 50.2766)" class="st29" cx="662.99" cy="372.37" rx="12.07" ry="12.07"/>
					<path class="st51" d="M588.44,311.14c4.35-5.05,11.98-5.61,17.03-1.26c2.52,2.17,3.92,5.15,4.15,8.23
						c0.22-3.64-1.18-7.33-4.15-9.89c-5.05-4.35-12.67-3.79-17.03,1.26c-2.18,2.53-3.13,5.71-2.89,8.8
						C585.7,315.73,586.65,313.22,588.44,311.14z"/>
					<path class="st64" d="M559.02,333.53c4.35-5.05,11.98-5.61,17.03-1.26c2.52,2.17,3.92,5.15,4.15,8.23
						c0.22-3.64-1.18-7.33-4.15-9.89c-5.05-4.35-12.67-3.79-17.03,1.26c-2.18,2.53-3.13,5.71-2.89,8.8
						C556.29,338.12,557.23,335.6,559.02,333.53z"/>
					<path class="st64" d="M557.75,370.22c4.35-5.05,11.98-5.61,17.03-1.26c2.52,2.17,3.92,5.15,4.15,8.23
						c0.22-3.64-1.18-7.33-4.15-9.89c-5.05-4.35-12.67-3.79-17.03,1.26c-2.18,2.53-3.13,5.71-2.89,8.8
						C555.02,374.81,555.96,372.29,557.75,370.22z"/>
					<path class="st64" d="M586.52,390.29c4.35-5.05,11.98-5.61,17.03-1.26c2.52,2.17,3.92,5.15,4.15,8.23
						c0.22-3.64-1.18-7.33-4.15-9.89c-5.05-4.35-12.67-3.79-17.03,1.26c-2.18,2.53-3.13,5.71-2.89,8.8
						C583.78,394.88,584.73,392.37,586.52,390.29z"/>
					<path class="st64" d="M624.2,386.95c4.35-5.05,11.98-5.61,17.03-1.26c2.52,2.17,3.92,5.15,4.15,8.23
						c0.22-3.64-1.18-7.33-4.15-9.89c-5.05-4.35-12.67-3.79-17.03,1.26c-2.18,2.53-3.13,5.71-2.89,8.8
						C621.46,391.54,622.41,389.03,624.2,386.95z"/>
					<path class="st65" d="M653.84,366.15c4.35-5.05,11.98-5.61,17.03-1.26c2.52,2.17,3.92,5.15,4.15,8.23
						c0.22-3.64-1.18-7.33-4.15-9.89c-5.05-4.35-12.67-3.79-17.03,1.26c-2.18,2.53-3.13,5.71-2.89,8.8
						C651.11,370.74,652.05,368.23,653.84,366.15z"/>
				</g>
			</g>
		</g>
		<g style="clip-path:url(#SVGID_00000150090343754336413900000017111786333397227181_);">
			<path class="st14" d="M423.76,414.78l11.28-0.29c3.65-0.09,7.3,0.34,10.83,1.28l56.16,15.01c0,0,30.98,7.43,34.97,10.05
				l6.38,1.54c0,0,0.55,5.94-2.47,7.92l-5.79-1.81c0,0-6.03,0.06-25.67-5.75l-49.03-13.43l-19.56-5.17
				c-1.43-0.38-2.81-0.95-4.09-1.7L423.76,414.78z"/>
			<path class="st14" d="M537.08,446.14c0,0-6.03,0.06-25.67-5.75l-49.03-13.43l-21.73-5.75l-16.89-6.44l10.48,6.16
				c2.96,1.74,6.15,3.07,9.47,3.95l16.72,4.42l49.03,13.43c19.65,5.81,25.67,5.75,25.67,5.75l5.79,1.81
				c0.85-0.56,1.41-1.43,1.79-2.39L537.08,446.14z"/>
		</g>
	</g>
</g>
<g id="DESIGNED_BY_FREEPIK" class="st0">
	<g class="st66">
		<g id="XMLID_29_">
			<g id="XMLID_48_">
				<path id="XMLID_56_" class="st38" d="M385.1,472.13c-0.43,0.44-0.8,0.93-1.11,1.45l-0.47-0.24c-0.07-0.3-0.35-0.5-0.66-0.47
					c-0.33,0.04-0.57,0.34-0.53,0.67c0.04,0.33,0.34,0.57,0.67,0.53c0.07-0.01,0.13-0.03,0.18-0.05l0.45,0.23
					c-0.25,0.55-0.43,1.14-0.54,1.74l0.75,0.13c0.23-1.31,0.85-2.51,1.79-3.47L385.1,472.13z"/>
				<path id="XMLID_55_" class="st38" d="M390.59,469.83c-0.17,0-0.34,0.01-0.51,0.02l-0.07-0.63c0.19-0.15,0.3-0.39,0.27-0.64
					c-0.05-0.39-0.4-0.67-0.8-0.63c-0.39,0.05-0.67,0.4-0.63,0.8c0.03,0.25,0.19,0.46,0.4,0.56l0.07,0.62
					c-0.71,0.12-1.4,0.33-2.06,0.65l0.33,0.68c0.93-0.45,1.94-0.67,3-0.67c0.5,0,0.99,0.05,1.48,0.16l0.16-0.74
					C391.69,469.89,391.14,469.83,390.59,469.83z"/>
				<path id="XMLID_54_" class="st38" d="M397.19,472.37c0.33-0.04,0.57-0.34,0.53-0.67c-0.04-0.33-0.34-0.57-0.67-0.53
					c-0.31,0.04-0.54,0.3-0.53,0.61l-0.42,0.36c-0.42-0.43-0.89-0.81-1.41-1.14l-0.4,0.64c1.13,0.71,2.02,1.73,2.56,2.93l0.69-0.31
					c-0.25-0.55-0.57-1.07-0.94-1.54l0.4-0.35C397.06,472.38,397.13,472.38,397.19,472.37z"/>
				<path id="XMLID_53_" class="st38" d="M390.04,480.03c-0.39,0.02-0.77,0.03-1.16,0.03c-0.88,0-1.73-0.06-2.48-0.18
					c-0.39-0.06-0.85-0.15-1.27-0.29c1.05,1.86,3.07,3.12,5.39,3.12c2.86,0,5.26-1.92,5.95-4.5c-0.68,0.45-1.51,0.83-2.46,1.12
					C392.84,479.71,391.46,479.95,390.04,480.03z"/>
				<path id="XMLID_49_" class="st38" d="M390.59,471.34c-3.35,0-6.08,2.67-6.08,5.94c0,0.43,0.05,0.85,0.14,1.26
					c0.67,0.48,2.71,0.89,5.35,0.73c2.88-0.17,5.3-0.96,6.67-2.16c-0.01-0.2-0.02-0.39-0.05-0.58
					C396.24,473.58,393.65,471.34,390.59,471.34z M388.43,477.86c-1.02,0-1.85-0.83-1.85-1.85c0-1.02,0.83-1.85,1.85-1.85
					c1.02,0,1.85,0.83,1.85,1.85C390.28,477.03,389.45,477.86,388.43,477.86z M393.17,476.95c-0.75,0-1.36-0.61-1.36-1.36
					c0-0.75,0.61-1.36,1.36-1.36c0.75,0,1.36,0.61,1.36,1.36C394.53,476.34,393.92,476.95,393.17,476.95z"/>
			</g>
			<path id="XMLID_46_" class="st38" d="M406.6,473.21c-0.29-0.12-0.81-0.31-1.38-0.24c-0.55,0.07-0.84,0.34-0.84,1.01v0.87h2.23
				v1.72h-2.23v5.45h-1.93v-5.45h-1.34v-1.72h1.34v-0.89c0-1.68,0.9-2.78,2.57-2.78c0.64,0,1.16,0.12,1.59,0.31L406.6,473.21z"/>
			<path id="XMLID_44_" class="st38" d="M411.3,476.54c-0.18-0.03-0.36-0.05-0.53-0.05c-0.9,0-1.51,0.55-1.51,1.61v3.91h-1.93v-7.17
				h1.87v0.78c0.45-0.67,1.14-0.98,2.02-0.98c0.41,0,0.85,0.13,1.09,0.34L411.3,476.54z"/>
			<path id="XMLID_41_" class="st38" d="M418.97,478.42c0,0.22-0.01,0.49-0.04,0.65h-5.08c0.21,1.04,0.93,1.49,1.84,1.49
				c0.62,0,1.3-0.25,1.81-0.69l1.13,1.24c-0.81,0.75-1.85,1.09-3.06,1.09c-2.2,0-3.72-1.5-3.72-3.75c0-2.26,1.48-3.8,3.63-3.8
				C417.54,474.65,418.96,476.18,418.97,478.42z M413.85,477.75h3.18c-0.18-0.92-0.73-1.44-1.56-1.44
				C414.55,476.32,414.02,476.87,413.85,477.75z"/>
			<path id="XMLID_38_" class="st38" d="M426.62,478.42c0,0.22-0.01,0.49-0.04,0.65h-5.08c0.21,1.04,0.93,1.49,1.84,1.49
				c0.62,0,1.3-0.25,1.81-0.69l1.13,1.24c-0.81,0.75-1.85,1.09-3.06,1.09c-2.2,0-3.72-1.5-3.72-3.75c0-2.26,1.48-3.8,3.63-3.8
				C425.2,474.65,426.61,476.18,426.62,478.42z M421.5,477.75h3.18c-0.18-0.92-0.73-1.44-1.56-1.44
				C422.21,476.32,421.67,476.87,421.5,477.75z"/>
			<path id="XMLID_35_" class="st38" d="M434.96,478.43c0,2.15-1.49,3.77-3.47,3.77c-0.96,0-1.64-0.38-2.11-0.93v3.71h-1.92v-10.13
				h1.89v0.79c0.47-0.58,1.15-0.98,2.14-0.98C433.47,474.65,434.96,476.27,434.96,478.43z M429.29,478.43
				c0,1.13,0.75,1.98,1.84,1.98c1.14,0,1.85-0.88,1.85-1.98c0-1.1-0.71-1.98-1.85-1.98C430.03,476.45,429.29,477.29,429.29,478.43z"
				/>
			<path id="XMLID_32_" class="st38" d="M438.07,472.5c0,0.7-0.54,1.23-1.24,1.23c-0.7,0-1.23-0.53-1.23-1.23
				c0-0.7,0.53-1.24,1.23-1.24C437.53,471.26,438.07,471.8,438.07,472.5z M437.81,482.02h-1.93v-7.17h1.93V482.02z"/>
			<path id="XMLID_30_" class="st38" d="M441.03,477.4l2.7-2.55h2.37l-3.48,3.38l3.5,3.8h-2.38l-2.72-2.9v2.9h-1.93v-10.66h1.93
				V477.4z"/>
		</g>
		<g>
			<path class="st38" d="M309.41,481.95v-1.05c-0.53,0.72-1.39,1.23-2.39,1.23c-1.85,0-3.15-1.41-3.15-3.71
				c0-2.26,1.29-3.72,3.15-3.72c0.95,0,1.82,0.47,2.39,1.25v-3.76h1.1v9.77H309.41z M309.41,480.03v-3.21
				c-0.4-0.62-1.24-1.14-2.12-1.14c-1.42,0-2.27,1.17-2.27,2.74c0,1.57,0.85,2.72,2.27,2.72
				C308.17,481.15,309.02,480.65,309.41,480.03z"/>
			<path class="st38" d="M311.93,478.41c0-2.05,1.46-3.71,3.49-3.71c2.14,0,3.4,1.67,3.4,3.79v0.28h-5.73
				c0.09,1.33,1.03,2.45,2.55,2.45c0.81,0,1.63-0.32,2.18-0.89l0.53,0.72c-0.7,0.7-1.65,1.08-2.81,1.08
				C313.44,482.13,311.93,480.62,311.93,478.41z M315.4,475.61c-1.51,0-2.26,1.27-2.31,2.36h4.64
				C317.72,476.91,317.01,475.61,315.4,475.61z"/>
			<path class="st38" d="M319.61,481.01l0.57-0.79c0.47,0.54,1.36,1.01,2.33,1.01c1.08,0,1.67-0.51,1.67-1.22
				c0-1.71-4.38-0.66-4.38-3.28c0-1.1,0.95-2.04,2.64-2.04c1.2,0,2.05,0.45,2.62,1.03l-0.51,0.76c-0.42-0.51-1.2-0.89-2.11-0.89
				c-0.97,0-1.57,0.48-1.57,1.11c0,1.55,4.38,0.53,4.38,3.28c0,1.19-0.95,2.14-2.78,2.14C321.31,482.13,320.32,481.78,319.61,481.01
				z"/>
			<path class="st38" d="M326.48,473.13c0-0.41,0.34-0.75,0.73-0.75c0.41,0,0.75,0.34,0.75,0.75c0,0.41-0.34,0.73-0.75,0.73
				C326.81,473.87,326.48,473.54,326.48,473.13z M326.67,481.95v-7.07h1.1v7.07H326.67z"/>
			<path class="st38" d="M329.58,483.77l0.56-0.82c0.59,0.7,1.29,0.97,2.3,0.97c1.17,0,2.27-0.57,2.27-2.12v-1.01
				c-0.51,0.72-1.38,1.26-2.37,1.26c-1.85,0-3.15-1.38-3.15-3.66c0-2.27,1.29-3.68,3.15-3.68c0.95,0,1.8,0.47,2.37,1.25v-1.07h1.1
				v6.87c0,2.34-1.64,3.08-3.37,3.08C331.24,484.82,330.42,484.59,329.58,483.77z M334.71,479.92v-3.09
				c-0.38-0.62-1.23-1.14-2.11-1.14c-1.42,0-2.27,1.13-2.27,2.7c0,1.55,0.85,2.7,2.27,2.7
				C333.48,481.07,334.33,480.53,334.71,479.92z"/>
			<path class="st38" d="M342.41,481.95v-4.63c0-1.24-0.63-1.64-1.58-1.64c-0.86,0-1.68,0.53-2.09,1.1v5.17h-1.1v-7.07h1.1v1.03
				c0.5-0.59,1.46-1.2,2.52-1.2c1.48,0,2.26,0.75,2.26,2.29v4.97H342.41z"/>
			<path class="st38" d="M344.93,478.41c0-2.05,1.46-3.71,3.49-3.71c2.14,0,3.4,1.67,3.4,3.79v0.28h-5.73
				c0.09,1.33,1.03,2.45,2.55,2.45c0.81,0,1.63-0.32,2.18-0.89l0.53,0.72c-0.7,0.7-1.66,1.08-2.81,1.08
				C346.44,482.13,344.93,480.62,344.93,478.41z M348.4,475.61c-1.51,0-2.26,1.27-2.31,2.36h4.64
				C350.72,476.91,350.02,475.61,348.4,475.61z"/>
			<path class="st38" d="M358.35,481.95v-1.05c-0.53,0.72-1.39,1.23-2.39,1.23c-1.85,0-3.15-1.41-3.15-3.71
				c0-2.26,1.29-3.72,3.15-3.72c0.95,0,1.82,0.47,2.39,1.25v-3.76h1.1v9.77H358.35z M358.35,480.03v-3.21
				c-0.4-0.62-1.25-1.14-2.12-1.14c-1.42,0-2.27,1.17-2.27,2.74c0,1.57,0.85,2.72,2.27,2.72
				C357.1,481.15,357.95,480.65,358.35,480.03z"/>
			<path class="st38" d="M364.69,481.95v-9.77h1.1v3.76c0.57-0.78,1.42-1.25,2.39-1.25c1.85,0,3.15,1.46,3.15,3.72
				c0,2.3-1.3,3.71-3.15,3.71c-1,0-1.86-0.51-2.39-1.23v1.05H364.69z M367.9,481.15c1.44,0,2.29-1.16,2.29-2.72
				c0-1.57-0.85-2.74-2.29-2.74c-0.86,0-1.73,0.53-2.11,1.14v3.21C366.17,480.65,367.04,481.15,367.9,481.15z"/>
			<path class="st38" d="M372.53,483.72c0.16,0.07,0.42,0.12,0.6,0.12c0.48,0,0.81-0.16,1.05-0.75l0.47-1.07l-2.96-7.15h1.19
				l2.36,5.8l2.34-5.8h1.2l-3.54,8.51c-0.42,1.03-1.14,1.42-2.08,1.44c-0.23,0-0.6-0.04-0.81-0.1L372.53,483.72z"/>
		</g>
	</g>
</g>
</svg>
